<svg xmlns="http://www.w3.org/2000/svg" viewBox="0 0 32 32" width="24" height="24" style="border-color: rgba(0,0,0,0);border-width: bpx;border-style: undefined" filter="none">
    
    <g>
    <path d="M13.971 15.509l-6.013-9.429 2.575-0.691 9.268 8.56 7.016-1.88c0.155-0.043 0.333-0.068 0.517-0.068 1.105 0 2 0.895 2 2 0 0.921-0.622 1.696-1.469 1.929l-0.014 0.003-19.963 5.347-1.035-3.864 0.321-0.087 3.289 3.26-3.501 0.939c-0.104 0.029-0.223 0.046-0.345 0.046-0.499 0-0.933-0.274-1.162-0.679l-0.003-0.007-3.497-6.301 1.932-0.517 3.288 3.26 6.796-1.821zM5.333 25.333h21.333v2.667h-21.333v-2.667z" fill="rgba(255,156.06,82.875,1)"></path>
    </g>
  </svg>