<svg xmlns="http://www.w3.org/2000/svg" viewBox="0 0 32 32" width="60" height="60" style="border-color: rgba(0,0,0,0);border-width: bpx;border-style: undefined" filter="none">
    
    <g>
    <path d="M6.667 6.667v18.667h18.667v-18.667h-18.667zM5.333 4h21.333c0.736 0 1.333 0.597 1.333 1.333v0 21.333c0 0.736-0.597 1.333-1.333 1.333v0h-21.333c-0.736 0-1.333-0.597-1.333-1.333v0-21.333c0-0.736 0.597-1.333 1.333-1.333v0zM13.159 20l-1.093 2.667h-2.955l5.556-13.333h2.667l5.556 13.333h-2.956l-1.093-2.667h-5.68zM14.252 17.333h3.496l-1.748-4.267-1.748 4.267z" fill="rgba(16.065,16.065,16.065,1)"></path>
    </g>
  </svg>