<svg xmlns="http://www.w3.org/2000/svg" viewBox="0 0 32 32" width="60" height="60" style="border-color: rgba(0,0,0,0);border-width: bpx;border-style: undefined" filter="none">
    
    <g>
    <path d="M20 6.667h2.667c1.473 0 2.667 1.194 2.667 2.667v0 10.893c1.568 0.566 2.668 2.041 2.668 3.773 0 2.21-1.791 4.001-4.001 4.001s-4.001-1.791-4.001-4.001c0-1.732 1.1-3.207 2.64-3.764l0.028-0.009v-10.893h-2.667v4l-6-5.333 6-5.333v4zM6.667 11.773c-1.568-0.566-2.668-2.041-2.668-3.773 0-2.21 1.791-4.001 4.001-4.001s4.001 1.791 4.001 4.001c0 1.732-1.1 3.207-2.64 3.764l-0.028 0.009v8.453c1.568 0.566 2.668 2.041 2.668 3.773 0 2.21-1.791 4.001-4.001 4.001s-4.001-1.791-4.001-4.001c0-1.732 1.1-3.207 2.64-3.764l0.028-0.009v-8.453zM8 9.333c0.736 0 1.333-0.597 1.333-1.333s-0.597-1.333-1.333-1.333v0c-0.736 0-1.333 0.597-1.333 1.333s0.597 1.333 1.333 1.333v0zM8 25.333c0.736 0 1.333-0.597 1.333-1.333s-0.597-1.333-1.333-1.333v0c-0.736 0-1.333 0.597-1.333 1.333s0.597 1.333 1.333 1.333v0zM24 25.333c0.736 0 1.333-0.597 1.333-1.333s-0.597-1.333-1.333-1.333v0c-0.736 0-1.333 0.597-1.333 1.333s0.597 1.333 1.333 1.333v0z" fill="rgba(51,51,51,1)"></path>
    </g>
  </svg>