<svg xmlns="http://www.w3.org/2000/svg" viewBox="0 0 32 32" width="60" height="60" style="border-color: rgba(0,0,0,0);border-width: bpx;border-style: undefined" filter="none">
    
    <g>
    <path d="M25.333 9.333h6.667v2.667h-6.667v-2.667zM22.667 16h9.333v2.667h-9.333v-2.667zM26.667 22.667h5.333v2.667h-5.333v-2.667zM2.667 29.333c0-5.891 4.776-10.667 10.667-10.667s10.667 4.776 10.667 10.667v0h-2.667c0-4.418-3.582-8-8-8s-8 3.582-8 8v0h-2.667zM13.333 17.333c-4.42 0-8-3.58-8-8s3.58-8 8-8 8 3.58 8 8-3.58 8-8 8zM13.333 14.667c2.947 0 5.333-2.387 5.333-5.333s-2.387-5.333-5.333-5.333-5.333 2.387-5.333 5.333 2.387 5.333 5.333 5.333z" fill="rgba(51,51,51,1)"></path>
    </g>
  </svg>