<svg xmlns="http://www.w3.org/2000/svg" viewBox="0 0 32 32" width="32" height="32" style="border-color: rgba(0,0,0,0);border-width: bpx;border-style: undefined" filter="none">
    
    <g>
    <path d="M22.667 22.667h6.667v2.667h-4v4h-2.667v-6.667zM9.333 9.333h-6.667v-2.667h4v-4h2.667v6.667zM24.485 20.715l-1.885-1.888 1.885-1.885c1.219-1.208 1.973-2.883 1.973-4.735 0-3.682-2.985-6.667-6.667-6.667-1.851 0-3.526 0.755-4.734 1.973l-1.886 1.887-1.887-1.885 1.888-1.885c1.689-1.689 4.023-2.734 6.6-2.734 5.155 0 9.334 4.179 9.334 9.334 0 2.577-1.045 4.911-2.734 6.6l-1.887 1.885zM20.715 24.485l-1.887 1.885c-1.689 1.689-4.023 2.734-6.6 2.734-5.155 0-9.334-4.179-9.334-9.334 0-2.577 1.045-4.911 2.734-6.6v0l1.887-1.885 1.885 1.888-1.885 1.885c-1.219 1.208-1.973 2.883-1.973 4.735 0 3.682 2.985 6.667 6.667 6.667 1.851 0 3.526-0.755 4.734-1.973l1.886-1.886 1.887 1.885zM19.771 10.343l1.887 1.887-9.428 9.427-1.887-1.885 9.428-9.427z" fill="rgba(255,156.06,82.875,1)"></path>
    </g>
  </svg>