<svg xmlns="http://www.w3.org/2000/svg" viewBox="0 0 32 32" width="32" height="32" style="border-color: rgba(0,0,0,0);border-width: bpx;border-style: undefined" filter="none">
    
    <g>
    <path d="M29.333 26.676c-0.005 0.729-0.594 1.318-1.322 1.324h-24.022c-0.731-0.001-1.323-0.593-1.323-1.324v0-1.343h24v-15.6l-10.667 9.6-13.333-12v-2c0-0.736 0.597-1.333 1.333-1.333v0h24c0.736 0 1.333 0.597 1.333 1.333v0 21.343zM5.912 6.667l10.088 9.080 10.088-9.080h-20.176zM0 20h10.667v2.667h-10.667v-2.667zM0 13.333h6.667v2.667h-6.667v-2.667z" fill="rgba(255,156.06,82.875,1)"></path>
    </g>
  </svg>